<svg xmlns="http://www.w3.org/2000/svg" width="1024" height="1024" viewBox="0 0 1024 1024">
  <defs>
    <linearGradient id="bg" x1="0" y1="0" x2="1" y2="1">
      <stop offset="0%" stop-color="#FF8A3D"/>
      <stop offset="55%" stop-color="#FF4E6A"/>
      <stop offset="100%" stop-color="#C9256B"/>
    </linearGradient>
    <linearGradient id="cardBottom" x1="0" y1="0" x2="1" y2="1">
      <stop offset="0%" stop-color="#8B1742"/>
      <stop offset="100%" stop-color="#5A0E2A"/>
    </linearGradient>
    <linearGradient id="cardMiddle" x1="0" y1="0" x2="1" y2="1">
      <stop offset="0%" stop-color="#FFD9A8"/>
      <stop offset="100%" stop-color="#FFAE6C"/>
    </linearGradient>
    <linearGradient id="cardTop" x1="0" y1="0" x2="1" y2="1">
      <stop offset="0%" stop-color="#FFFFFF"/>
      <stop offset="100%" stop-color="#FFF0DC"/>
    </linearGradient>
    <radialGradient id="glow" cx="0.5" cy="0.5" r="0.5">
      <stop offset="0%" stop-color="#FFFFFF" stop-opacity="0.35"/>
      <stop offset="100%" stop-color="#FFFFFF" stop-opacity="0"/>
    </radialGradient>
    <filter id="shadowSoft" x="-30%" y="-30%" width="160%" height="160%">
      <feDropShadow dx="0" dy="24" stdDeviation="28" flood-color="#3B0A1E" flood-opacity="0.30"/>
    </filter>
  </defs>

  <rect width="1024" height="1024" fill="url(#bg)"/>
  <circle cx="760" cy="240" r="360" fill="url(#glow)"/>

  <g transform="translate(512 560) rotate(-26)" filter="url(#shadowSoft)">
    <rect x="-312" y="-196" width="624" height="392" rx="52" fill="url(#cardBottom)"/>
  </g>
  <g transform="translate(512 540) rotate(-14)" filter="url(#shadowSoft)">
    <rect x="-312" y="-196" width="624" height="392" rx="52" fill="url(#cardMiddle)"/>
  </g>
  <g transform="translate(512 520) rotate(-2)" filter="url(#shadowSoft)">
    <rect x="-312" y="-196" width="624" height="392" rx="52" fill="url(#cardTop)"/>
    <g fill="#2A0E1A" transform="translate(13 0) scale(1.16 1.4)">
      <rect x="-210" y="-72" width="18" height="144" rx="3"/>
      <rect x="-176" y="-72" width="10" height="144" rx="3"/>
      <rect x="-148" y="-72" width="22" height="144" rx="3"/>
      <rect x="-108" y="-72" width="10" height="144" rx="3"/>
      <rect x="-82"  y="-72" width="16" height="144" rx="3"/>
      <rect x="-50"  y="-72" width="10" height="144" rx="3"/>
      <rect x="-24"  y="-72" width="22" height="144" rx="3"/>
      <rect x="16"   y="-72" width="10" height="144" rx="3"/>
      <rect x="42"   y="-72" width="16" height="144" rx="3"/>
      <rect x="74"   y="-72" width="10" height="144" rx="3"/>
      <rect x="100"  y="-72" width="22" height="144" rx="3"/>
      <rect x="140"  y="-72" width="10" height="144" rx="3"/>
      <rect x="166"  y="-72" width="18" height="144" rx="3"/>
    </g>
  </g>
</svg>
