<svg xmlns="http://www.w3.org/2000/svg" width="1024" height="1024" viewBox="0 0 1024 1024">
  <!-- Background -->
  <rect width="1024" height="1024" rx="184" fill="#111827"/>

  <!-- Card -->
  <rect x="236" y="310" width="552" height="340" rx="26" fill="#ffffff"/>

  <!-- Magnetic stripe -->
  <rect x="236" y="375" width="552" height="50" fill="#d1d5db"/>

  <!-- Barcode centered -->
  <g fill="#9ca3af">
    <rect x="310" y="460" width="8" height="120"/>
    <rect x="324" y="460" width="4" height="120"/>
    <rect x="334" y="460" width="10" height="120"/>
    <rect x="350" y="460" width="4" height="120"/>
    <rect x="360" y="460" width="6" height="120"/>
    <rect x="374" y="460" width="12" height="120"/>
    <rect x="392" y="460" width="4" height="120"/>
    <rect x="402" y="460" width="8" height="120"/>
    <rect x="416" y="460" width="4" height="120"/>
    <rect x="426" y="460" width="10" height="120"/>
    <rect x="442" y="460" width="6" height="120"/>
    <rect x="454" y="460" width="4" height="120"/>
    <rect x="464" y="460" width="12" height="120"/>
    <rect x="482" y="460" width="4" height="120"/>
    <rect x="492" y="460" width="8" height="120"/>
    <rect x="506" y="460" width="6" height="120"/>
    <rect x="518" y="460" width="4" height="120"/>
    <rect x="528" y="460" width="10" height="120"/>
    <rect x="544" y="460" width="4" height="120"/>
    <rect x="554" y="460" width="8" height="120"/>
    <rect x="568" y="460" width="12" height="120"/>
    <rect x="586" y="460" width="4" height="120"/>
    <rect x="596" y="460" width="6" height="120"/>
    <rect x="608" y="460" width="4" height="120"/>
    <rect x="618" y="460" width="10" height="120"/>
    <rect x="634" y="460" width="4" height="120"/>
    <rect x="644" y="460" width="8" height="120"/>
    <rect x="658" y="460" width="4" height="120"/>
    <rect x="670" y="460" width="6" height="120"/>
    <rect x="682" y="460" width="12" height="120"/>
    <rect x="700" y="460" width="8" height="120"/>
  </g>
</svg>
