<svg xmlns="http://www.w3.org/2000/svg" width="1024" height="1024" viewBox="0 0 1024 1024">
  <g transform="translate(143 123) scale(0.72)">
    <g transform="translate(512 560) rotate(-26)">
      <rect x="-312" y="-196" width="624" height="392" rx="52" fill="#FFFFFF" opacity="0.45"/>
    </g>
    <g transform="translate(512 540) rotate(-14)">
      <rect x="-312" y="-196" width="624" height="392" rx="52" fill="#FFFFFF" opacity="0.7"/>
    </g>
    <g transform="translate(512 520) rotate(-2)">
      <rect x="-312" y="-196" width="624" height="392" rx="52" fill="#FFFFFF"/>
      <g fill="#FFFFFF" fill-opacity="0" stroke="#000000" stroke-opacity="0" transform="translate(13 0) scale(1.16 1.4)">
        <rect x="-210" y="-72" width="18" height="144" rx="3" fill="#000000" fill-opacity="0.45"/>
        <rect x="-176" y="-72" width="10" height="144" rx="3" fill="#000000" fill-opacity="0.45"/>
        <rect x="-148" y="-72" width="22" height="144" rx="3" fill="#000000" fill-opacity="0.45"/>
        <rect x="-108" y="-72" width="10" height="144" rx="3" fill="#000000" fill-opacity="0.45"/>
        <rect x="-82"  y="-72" width="16" height="144" rx="3" fill="#000000" fill-opacity="0.45"/>
        <rect x="-50"  y="-72" width="10" height="144" rx="3" fill="#000000" fill-opacity="0.45"/>
        <rect x="-24"  y="-72" width="22" height="144" rx="3" fill="#000000" fill-opacity="0.45"/>
        <rect x="16"   y="-72" width="10" height="144" rx="3" fill="#000000" fill-opacity="0.45"/>
        <rect x="42"   y="-72" width="16" height="144" rx="3" fill="#000000" fill-opacity="0.45"/>
        <rect x="74"   y="-72" width="10" height="144" rx="3" fill="#000000" fill-opacity="0.45"/>
        <rect x="100"  y="-72" width="22" height="144" rx="3" fill="#000000" fill-opacity="0.45"/>
        <rect x="140"  y="-72" width="10" height="144" rx="3" fill="#000000" fill-opacity="0.45"/>
        <rect x="166"  y="-72" width="18" height="144" rx="3" fill="#000000" fill-opacity="0.45"/>
      </g>
    </g>
  </g>
</svg>
